<?xml version="1.0" standalone="no"?>
<!DOCTYPE svg PUBLIC "-//W3C//DTD SVG 20010904//EN"
 "http://www.w3.org/TR/2001/REC-SVG-20010904/DTD/svg10.dtd">
<svg version="1.0" xmlns="http://www.w3.org/2000/svg"
 width="200.000000pt" height="200.000000pt" viewBox="0 0 200.000000 200.000000"
 preserveAspectRatio="xMidYMid meet">
<metadata>
Created by potrace 1.11, written by Peter Selinger 2001-2013
</metadata>
<g transform="translate(0.000000,200.000000) scale(0.100000,-0.100000)"
fill="#000000" stroke="none">
<path d="M0 1000 l0 -1000 1000 0 1000 0 0 1000 0 1000 -1000 0 -1000 0 0
-1000z m1244 620 c112 -18 186 -75 186 -143 0 -45 -31 -108 -57 -118 -38 -14
-40 -12 -48 37 -12 79 -59 104 -201 104 -144 0 -292 -51 -373 -128 -35 -34
-41 -45 -41 -81 0 -37 6 -49 51 -96 56 -59 93 -76 289 -135 217 -66 321 -138
335 -234 24 -158 -239 -348 -558 -402 -110 -18 -186 -10 -259 27 -31 16 -38
25 -38 49 0 40 20 80 39 80 9 0 41 -7 71 -15 119 -32 265 -11 415 59 105 50
182 115 191 163 6 28 2 34 -37 62 -23 18 -81 43 -128 57 -262 77 -372 130
-444 214 -39 46 -67 120 -67 179 0 187 381 369 674 321z"/>
</g>
</svg>
